<svg width="47" height="30" viewBox="0 0 47 30" fill="none" xmlns="http://www.w3.org/2000/svg">
<path id="&#232;&#183;&#175;&#229;&#190;&#132; 10&#229;&#164;&#135;&#228;&#187;&#189;" d="M44.2222 13.2778C45.3267 13.2778 46.2222 14.1732 46.2222 15.2778C46.2222 16.3823 45.3267 17.2778 44.2222 17.2778V13.2778ZM0.585732 16.692C-0.19532 15.9109 -0.19532 14.6446 0.585732 13.8636L13.3137 1.13564C14.0947 0.354594 15.361 0.354594 16.1421 1.13564C16.9231 1.91669 16.9231 3.18302 16.1421 3.96407L4.82837 15.2778L16.1421 26.5915C16.9231 27.3725 16.9231 28.6389 16.1421 29.4199C15.361 30.201 14.0947 30.201 13.3137 29.4199L0.585732 16.692ZM44.2222 17.2778H1.99994V13.2778H44.2222V17.2778Z" fill="#0D2938"/>
</svg>
