<svg width="48" height="48" viewBox="0 0 48 48" fill="none" xmlns="http://www.w3.org/2000/svg">
<rect opacity="0.01" width="48" height="48" fill="#D8D8D8"/>
<mask id="mask0_78_2977" style="mask-type:luminance" maskUnits="userSpaceOnUse" x="0" y="0" width="48" height="48">
<rect width="48" height="48" fill="white"/>
</mask>
<g mask="url(#mask0_78_2977)">
<path fill-rule="evenodd" clip-rule="evenodd" d="M35.6673 12.8327C39.963 17.1285 39.963 24.0933 35.6673 28.3891C31.8545 32.2019 25.939 32.6306 21.6534 29.6751L20.4645 30.864L22.9394 33.3388C23.9157 34.3151 23.9157 35.8981 22.9394 36.8744C21.963 37.8507 20.3801 37.8507 19.4038 36.8744L16.9289 34.3995L15.1612 36.1673C14.3801 36.9483 13.1138 36.9483 12.3328 36.1673C11.5517 35.3862 11.5517 34.1199 12.3328 33.3388L14.1005 31.5711L11.6256 29.0962C10.6493 28.1199 10.6493 26.537 11.6256 25.5607C12.602 24.5844 14.1849 24.5844 15.1612 25.5607L17.6361 28.0355L18.825 26.8466C15.8695 22.561 16.2981 16.6456 20.1109 12.8327C24.4067 8.53697 31.3715 8.53697 35.6673 12.8327ZM32.1317 24.8536C29.7886 27.1967 25.9896 27.1967 23.6465 24.8536C21.3033 22.5104 21.3033 18.7114 23.6465 16.3683C25.9896 14.0251 29.7886 14.0251 32.1317 16.3683C34.4749 18.7114 34.4749 22.5104 32.1317 24.8536Z" fill="#F9648D"/>
</g>
</svg>
