<svg width="88" height="88" viewBox="0 0 88 88" fill="none" xmlns="http://www.w3.org/2000/svg">
<rect opacity="0.01" width="88" height="88" fill="#D8D8D8"/>
<mask id="mask0_75_1903" style="mask-type:luminance" maskUnits="userSpaceOnUse" x="0" y="0" width="88" height="88">
<rect width="88" height="88" fill="white"/>
</mask>
<g mask="url(#mask0_75_1903)">
<path fill-rule="evenodd" clip-rule="evenodd" d="M20.1642 56.9814C13.3856 56.6174 8 50.9446 8 44C8 37.543 12.6558 32.1855 18.7583 31.1724C21.0593 19.6718 31.4901 11 44 11C56.4886 11 66.9398 19.6555 69.2423 31.1725C75.3445 32.1858 80 37.5432 80 44C80 51.1797 74.2437 57 67.1429 57C64.3025 57 62 54.6975 62 51.8571V50.0211L61.9993 50.0018L62 36.1429V35.9617L61.997 35.6427C61.8187 26.3053 53.832 18.7778 44 18.7778C34.2863 18.7778 26.3379 26.1366 26.0104 35.3728L26.0002 35.944L26 47.5939L26.003 47.9129C26.1813 57.2502 34.168 64.7778 44 64.7778C46.1288 64.7778 47.8571 66.5174 47.8571 68.6667C47.8571 70.8159 46.1288 72.5556 44 72.5556C33.2384 72.5556 23.9896 66.1284 20.1642 56.9814Z" fill="#95E1F1"/>
<path d="M20.1642 56.9814L21.548 56.4027C21.3259 55.8716 20.8195 55.5145 20.2446 55.4836L20.1642 56.9814ZM18.7583 31.1724L19.0039 32.6521C19.619 32.55 20.1068 32.078 20.2291 31.4667L18.7583 31.1724ZM69.2423 31.1725L67.7714 31.4665C67.8937 32.078 68.3815 32.55 68.9966 32.6522L69.2423 31.1725ZM62 50.0211H63.5C63.5 50.0039 63.4997 49.9867 63.4991 49.9694L62 50.0211ZM61.9993 50.0018L60.4993 50.0018C60.4993 50.019 60.4996 50.0362 60.5002 50.0535L61.9993 50.0018ZM62 36.1429L63.5 36.1429V36.1429H62ZM62 35.9617H63.5C63.5 35.9569 63.5 35.9521 63.4999 35.9474L62 35.9617ZM61.997 35.6427L63.4969 35.6284C63.4968 35.6236 63.4968 35.6188 63.4967 35.614L61.997 35.6427ZM26.0104 35.3728L24.5114 35.3196C24.5111 35.3283 24.5108 35.3371 24.5107 35.3458L26.0104 35.3728ZM26.0002 35.944L24.5004 35.917C24.5002 35.926 24.5002 35.935 24.5002 35.944L26.0002 35.944ZM26 47.5939L24.5 47.5938C24.5 47.5986 24.5 47.6034 24.5001 47.6082L26 47.5939ZM26.003 47.9129L24.5031 47.9272C24.5032 47.932 24.5032 47.9367 24.5033 47.9415L26.003 47.9129ZM6.5 44C6.5 51.7317 12.499 58.072 20.0837 58.4793L20.2446 55.4836C14.2721 55.1629 9.5 50.1576 9.5 44H6.5ZM18.5126 29.6926C11.6864 30.8259 6.5 36.8094 6.5 44H9.5C9.5 38.2765 13.6253 33.5451 19.0039 32.6521L18.5126 29.6926ZM20.2291 31.4667C22.3865 20.6841 32.1877 12.5 44 12.5V9.5C30.7926 9.5 19.7321 18.6595 17.2874 30.8781L20.2291 31.4667ZM44 12.5C55.7926 12.5 65.6128 20.6693 67.7714 31.4665L70.7132 30.8784C68.2668 18.6417 57.1846 9.5 44 9.5V12.5ZM68.9966 32.6522C74.375 33.5454 78.5 38.2767 78.5 44H81.5C81.5 36.8097 76.314 30.8263 69.4881 29.6927L68.9966 32.6522ZM78.5 44C78.5 50.3669 73.3997 55.5 67.1429 55.5V58.5C75.0877 58.5 81.5 51.9925 81.5 44H78.5ZM67.1429 55.5C65.131 55.5 63.5 53.869 63.5 51.8571H60.5C60.5 55.5259 63.4741 58.5 67.1429 58.5V55.5ZM63.5 51.8571V50.0211H60.5V51.8571H63.5ZM63.4991 49.9694L63.4984 49.9502L60.5002 50.0535L60.5009 50.0727L63.4991 49.9694ZM63.4993 50.0019L63.5 36.1429L60.5 36.1428L60.4993 50.0018L63.4993 50.0019ZM63.5 36.1429V35.9617H60.5V36.1429H63.5ZM63.4999 35.9474L63.4969 35.6284L60.497 35.657L60.5001 35.976L63.4999 35.9474ZM63.4967 35.614C63.3017 25.3986 54.5868 17.2778 44 17.2778V20.2778C53.0772 20.2778 60.3358 27.2121 60.4972 35.6713L63.4967 35.614ZM44 17.2778C33.5405 17.2778 24.8696 25.2157 24.5114 35.3196L27.5095 35.4259C27.8062 27.0575 35.0321 20.2778 44 20.2778V17.2778ZM24.5107 35.3458L24.5004 35.917L27.4999 35.9709L27.5102 35.3997L24.5107 35.3458ZM24.5002 35.944L24.5 47.5938L27.5 47.5939L27.5002 35.944L24.5002 35.944ZM24.5001 47.6082L24.5031 47.9272L27.503 47.8986L27.4999 47.5796L24.5001 47.6082ZM24.5033 47.9415C24.6983 58.157 33.4132 66.2778 44 66.2778V63.2778C34.9228 63.2778 27.6642 56.3435 27.5028 47.8843L24.5033 47.9415ZM44 66.2778C45.2895 66.2778 46.3571 67.335 46.3571 68.6667H49.3571C49.3571 65.6999 46.968 63.2778 44 63.2778V66.2778ZM46.3571 68.6667C46.3571 69.9983 45.2895 71.0556 44 71.0556V74.0556C46.968 74.0556 49.3571 71.6334 49.3571 68.6667H46.3571ZM44 71.0556C33.842 71.0556 25.1396 64.9905 21.548 56.4027L18.7803 57.5602C22.8396 67.2662 32.6347 74.0556 44 74.0556V71.0556Z" fill="black"/>
<rect x="31.5" y="61.5" width="22" height="13" rx="6.5" fill="#FFE745" stroke="black" stroke-width="3" stroke-linejoin="round"/>
<path fill-rule="evenodd" clip-rule="evenodd" d="M50.9822 44.9957C50.3339 44.7759 49.6373 45.1411 49.4247 45.811C48.7624 47.906 46.8823 49.3134 44.7448 49.3134C42.7101 49.3134 40.8607 47.9946 40.1404 46.0273C39.9001 45.3678 39.1865 45.0347 38.5483 45.2863C37.9102 45.5345 37.5877 46.2719 37.8313 46.9312C38.3562 48.367 39.2791 49.5935 40.4972 50.4797C41.746 51.3872 43.2145 51.8657 44.7448 51.8657C46.3333 51.8657 47.8498 51.3517 49.1262 50.3804C50.3751 49.4268 51.2911 48.1222 51.7714 46.6051C51.9842 45.9351 51.6307 45.2155 50.9822 44.9957ZM39.1488 42.5108C39.8314 42.5108 40.384 41.94 40.384 41.2346V39.1717C40.384 38.4664 39.8314 37.8955 39.1488 37.8955C38.4659 37.8955 37.9136 38.4664 37.9136 39.1717V41.2346C37.9136 41.94 38.4659 42.5108 39.1488 42.5108ZM50.2687 42.5108C50.9514 42.5108 51.5037 41.94 51.5037 41.2346V39.1717C51.5037 38.4664 50.9514 37.8955 50.2687 37.8955C49.5859 37.8955 49.0335 38.4664 49.0335 39.1717V41.2346C49.0335 41.94 49.5859 42.5108 50.2687 42.5108Z" fill="#060A0B"/>
<path d="M50.9822 44.9957L50.8217 45.4692L50.8217 45.4693L50.9822 44.9957ZM49.4247 45.811L48.9481 45.6597L48.948 45.6602L49.4247 45.811ZM40.1404 46.0273L39.6706 46.1984L39.6708 46.1992L40.1404 46.0273ZM38.5483 45.2863L38.7296 45.7523L38.7318 45.7514L38.5483 45.2863ZM37.8313 46.9312L38.3009 46.7595L38.3003 46.7579L37.8313 46.9312ZM40.4972 50.4797L40.2031 50.884L40.2033 50.8842L40.4972 50.4797ZM49.1262 50.3804L49.429 50.7782L49.4296 50.7778L49.1262 50.3804ZM51.7714 46.6051L51.2949 46.4538L51.2948 46.4542L51.7714 46.6051ZM51.1428 44.5222C50.2166 44.2082 49.2413 44.7359 48.9481 45.6597L49.9013 45.9622C50.0333 45.5463 50.4511 45.3436 50.8217 45.4692L51.1428 44.5222ZM48.948 45.6602C48.3489 47.5555 46.6558 48.8134 44.7448 48.8134V49.8134C47.1087 49.8134 49.176 48.2566 49.9015 45.9617L48.948 45.6602ZM44.7448 48.8134C42.9279 48.8134 41.2609 47.6332 40.6099 45.8554L39.6708 46.1992C40.4606 48.356 42.4923 49.8134 44.7448 49.8134V48.8134ZM40.6102 45.8562C40.278 44.9442 39.2762 44.4618 38.3649 44.8212L38.7318 45.7514C39.0967 45.6075 39.5223 45.7915 39.6706 46.1984L40.6102 45.8562ZM38.3671 44.8203C37.4647 45.1713 37.0279 46.1994 37.3623 47.1044L38.3003 46.7579C38.1475 46.3444 38.3557 45.8977 38.7296 45.7523L38.3671 44.8203ZM37.3617 47.1029C37.9203 48.6308 38.9037 49.9387 40.2031 50.884L40.7914 50.0754C39.6545 49.2482 38.7921 48.1031 38.3009 46.7595L37.3617 47.1029ZM40.2033 50.8842C41.5369 51.8534 43.1082 52.3657 44.7448 52.3657V51.3657C43.3209 51.3657 41.9551 50.9211 40.7912 50.0752L40.2033 50.8842ZM44.7448 52.3657C46.4438 52.3657 48.0664 51.8152 49.429 50.7782L48.8234 49.9825C47.6331 50.8883 46.2228 51.3657 44.7448 51.3657V52.3657ZM49.4296 50.7778C50.7609 49.7613 51.7371 48.3703 52.2481 46.756L51.2948 46.4542C50.8452 47.8741 49.9893 49.0923 48.8228 49.9829L49.4296 50.7778ZM52.248 46.7564C52.5398 45.8376 52.0598 44.8331 51.1427 44.5222L50.8217 45.4693C51.2016 45.598 51.4287 46.0325 51.2949 46.4538L52.248 46.7564ZM39.1488 43.0108C40.1228 43.0108 40.884 42.2006 40.884 41.2346H39.884C39.884 41.6794 39.54 42.0108 39.1488 42.0108V43.0108ZM40.884 41.2346V39.1717H39.884V41.2346H40.884ZM40.884 39.1717C40.884 38.2057 40.1228 37.3955 39.1488 37.3955V38.3955C39.54 38.3955 39.884 38.727 39.884 39.1717H40.884ZM39.1488 37.3955C38.1745 37.3955 37.4136 38.2058 37.4136 39.1717H38.4136C38.4136 38.7269 38.7573 38.3955 39.1488 38.3955V37.3955ZM37.4136 39.1717V41.2346H38.4136V39.1717H37.4136ZM37.4136 41.2346C37.4136 42.2006 38.1745 43.0108 39.1488 43.0108V42.0108C38.7573 42.0108 38.4136 41.6794 38.4136 41.2346H37.4136ZM50.2687 43.0108C51.2429 43.0108 52.0037 42.2005 52.0037 41.2346H51.0037C51.0037 41.6794 50.6599 42.0108 50.2687 42.0108V43.0108ZM52.0037 41.2346V39.1717H51.0037V41.2346H52.0037ZM52.0037 39.1717C52.0037 38.2058 51.2429 37.3955 50.2687 37.3955V38.3955C50.6599 38.3955 51.0037 38.7269 51.0037 39.1717H52.0037ZM50.2687 37.3955C49.2944 37.3955 48.5335 38.2058 48.5335 39.1717H49.5335C49.5335 38.7269 49.8773 38.3955 50.2687 38.3955V37.3955ZM48.5335 39.1717V41.2346H49.5335V39.1717H48.5335ZM48.5335 41.2346C48.5335 42.2006 49.2944 43.0108 50.2687 43.0108V42.0108C49.8773 42.0108 49.5335 41.6794 49.5335 41.2346H48.5335Z" fill="#060A0B"/>
</g>
</svg>
