<svg width="64" height="64" viewBox="0 0 64 64" fill="none" xmlns="http://www.w3.org/2000/svg">
<rect opacity="0.01" width="64" height="64" rx="1" fill="#93DDEC"/>
<mask id="mask0_78_2954" style="mask-type:luminance" maskUnits="userSpaceOnUse" x="0" y="0" width="64" height="64">
<rect width="64" height="64" rx="1" fill="white"/>
</mask>
<g mask="url(#mask0_78_2954)">
<path fill-rule="evenodd" clip-rule="evenodd" d="M31.5995 12.003C24.1519 12.1081 17.17 14.9387 11.8892 19.8368L11.724 19.9925L11.6353 20.058C10.6167 20.8473 10 22.0495 10 23.3534C10 25.6871 11.9508 27.5724 14.3492 27.5724L14.5705 27.567C15.3786 27.5272 16.1457 27.2708 16.7974 26.8387L16.9596 26.7246L16.9801 26.7141C17.1581 26.6121 17.3255 26.4865 17.4777 26.337C21.2961 22.5867 26.4829 20.4383 32.0297 20.4383C37.5765 20.4383 42.7632 22.5866 46.5817 26.3368L46.6983 26.4442C46.8574 26.5814 47.0305 26.695 47.217 26.7872L47.3701 26.8844C48.0456 27.2905 48.8306 27.5148 49.6507 27.5148C52.0492 27.5148 54 25.6295 54 23.2958L53.9954 23.1004C53.9369 21.8685 53.3282 20.7436 52.3557 19.9942L52.2611 19.9243L52.4029 20.0561C46.9927 14.9271 39.7473 12 32.0297 12L31.5995 12.003Z" fill="#95E1F1" stroke="black" stroke-width="3" stroke-linejoin="round"/>
<path fill-rule="evenodd" clip-rule="evenodd" d="M31.6631 26.4038C27.1499 26.4935 22.9254 28.2366 19.736 31.2271L19.3764 31.567L19.2704 31.6801L19.0726 31.9162C18.4943 32.6434 18.1675 33.5396 18.1675 34.4856C18.1675 36.8193 20.1186 38.7047 22.5169 38.7047L22.7396 38.6991C23.6267 38.655 24.4639 38.3485 25.1547 37.8349L25.2839 37.733L25.3358 37.6965C25.4185 37.633 25.498 37.5635 25.5735 37.4881C27.2609 35.804 29.5626 34.8384 32.0297 34.8384C34.4969 34.8384 36.7986 35.804 38.4861 37.4881L38.5982 37.5932C38.6746 37.6605 38.7544 37.7222 38.837 37.7785L38.8601 37.7932L38.9922 37.8955C39.7368 38.4429 40.6517 38.7507 41.6142 38.7507C44.0126 38.7507 45.9633 36.8654 45.9633 34.5318L45.9583 34.3286C45.9018 33.1869 45.3708 32.1385 44.5137 31.3946L44.3409 31.2529L44.4557 31.3597C41.1614 28.2052 36.7412 26.4001 32.0297 26.4001L31.6631 26.4038Z" fill="#95E1F1" stroke="black" stroke-width="3" stroke-linejoin="round"/>
<path fill-rule="evenodd" clip-rule="evenodd" d="M32.0297 41.7208C29.1052 41.7208 26.7281 44.0183 26.7281 46.8605C26.7281 49.7025 29.1052 52 32.0297 52C34.9542 52 37.3315 49.7025 37.3315 46.8605C37.3315 44.0183 34.9542 41.7208 32.0297 41.7208Z" fill="#FFE745" stroke="black" stroke-width="3"/>
</g>
</svg>
