<svg width="80" height="80" viewBox="0 0 80 80" fill="none" xmlns="http://www.w3.org/2000/svg">
<g id="Group 32">
<circle id="Ellipse 21" cx="40" cy="40" r="40" fill="#95E1F1"/>
<g id="&#229;&#136;&#134;&#231;&#187;&#132; 17">
<path id="&#229;&#189;&#162;&#231;&#138;&#182;&#231;&#187;&#147;&#229;&#144;&#136;" fill-rule="evenodd" clip-rule="evenodd" d="M30.7067 32.9215C26.4504 32.9215 23 36.3719 23 40.6282V43.5789C23 52.4736 30.2106 59.6842 39.1053 59.6842H40.8947C49.7894 59.6842 57 52.4736 57 43.5789V40.6282C57 36.3719 53.5496 32.9215 49.2933 32.9215H30.7067ZM43.4 43.9166C43.4 44.981 42.9188 45.9321 42.1637 46.5608C42.1782 46.5994 42.1902 46.6394 42.1994 46.6805L42.924 49.8946C43.0518 50.4615 42.6207 51.0006 42.0395 51.0006H37.9605C37.3793 51.0006 36.9482 50.4615 37.076 49.8946L37.8006 46.6805C37.8098 46.6394 37.8218 46.5994 37.8363 46.5608C37.0812 45.9321 36.6 44.981 36.6 43.9166C36.6 42.0235 38.1222 40.4889 40 40.4889C41.8778 40.4889 43.4 42.0235 43.4 43.9166Z" fill="black"/>
<path id="&#232;&#183;&#175;&#229;&#190;&#132; 7 copy" d="M32.3501 33.1817L32.3501 27.1158C32.3501 23.3602 35.3946 20.3158 39.1501 20.3158H40.8989C44.2825 20.3158 47.1514 22.8035 47.6304 26.153L47.6501 26.2908V33.1817" stroke="black" stroke-width="5.44"/>
</g>
</g>
</svg>
