<svg width="31" height="30" viewBox="0 0 31 30" fill="none" xmlns="http://www.w3.org/2000/svg">
<g id="&#229;&#189;&#162;&#231;&#138;&#182;&#231;&#187;&#147;&#229;&#144;&#136;">
<mask id="path-1-outside-1_1063_1763" maskUnits="userSpaceOnUse" x="-1.35261" y="-5.70898" width="34.8553" height="41.9432" fill="black">
<rect fill="white" x="-1.35261" y="-5.70898" width="34.8553" height="41.9432"/>
<path fill-rule="evenodd" clip-rule="evenodd" d="M29.583 2.81263L27.3865 14.4135L24.1193 13.6581L24.8645 1.91268L29.583 2.81263ZM13.0539 10.0708L19.1438 18.2759L17.1484 20.0746L9.56236 13.3422L13.0539 10.0708ZM13.8249 25.4474L2.44821 23.2883L1.97943 28.0454L13.5211 28.1188L13.8249 25.4474Z"/>
</mask>
<path fill-rule="evenodd" clip-rule="evenodd" d="M29.583 2.81263L27.3865 14.4135L24.1193 13.6581L24.8645 1.91268L29.583 2.81263ZM13.0539 10.0708L19.1438 18.2759L17.1484 20.0746L9.56236 13.3422L13.0539 10.0708ZM13.8249 25.4474L2.44821 23.2883L1.97943 28.0454L13.5211 28.1188L13.8249 25.4474Z" fill="black"/>
<path d="M27.3865 14.4135L27.1613 15.3879L28.1754 15.6223L28.369 14.5996L27.3865 14.4135ZM29.583 2.81263L30.5655 2.99871L30.7513 2.01742L29.7703 1.83031L29.583 2.81263ZM24.1193 13.6581L23.1213 13.5947L23.0676 14.4413L23.8941 14.6324L24.1193 13.6581ZM24.8645 1.91268L25.0518 0.930365L23.9383 0.717988L23.8665 1.84931L24.8645 1.91268ZM19.1438 18.2759L19.8133 19.0187L20.4886 18.41L19.9467 17.6799L19.1438 18.2759ZM13.0539 10.0708L13.8569 9.47484L13.1885 8.57434L12.3702 9.34105L13.0539 10.0708ZM17.1484 20.0746L16.4847 20.8226L17.1537 21.4163L17.818 20.8174L17.1484 20.0746ZM9.56236 13.3422L8.87865 12.6124L8.07839 13.3622L8.89863 14.0901L9.56236 13.3422ZM2.44821 23.2883L2.6346 22.3058L1.56028 22.1019L1.45304 23.1902L2.44821 23.2883ZM13.8249 25.4474L14.8185 25.5604L14.9233 24.638L14.0113 24.4649L13.8249 25.4474ZM1.97943 28.0454L0.984266 27.9473L0.876741 29.0384L1.97312 29.0454L1.97943 28.0454ZM13.5211 28.1188L13.5148 29.1188L14.4132 29.1245L14.5147 28.2318L13.5211 28.1188ZM28.369 14.5996L30.5655 2.99871L28.6004 2.62654L26.404 14.2275L28.369 14.5996ZM23.8941 14.6324L27.1613 15.3879L27.6117 13.4392L24.3445 12.6838L23.8941 14.6324ZM23.8665 1.84931L23.1213 13.5947L25.1173 13.7215L25.8625 1.97604L23.8665 1.84931ZM29.7703 1.83031L25.0518 0.930365L24.6772 2.89499L29.3957 3.79494L29.7703 1.83031ZM19.9467 17.6799L13.8569 9.47484L12.251 10.6668L18.3408 18.8719L19.9467 17.6799ZM17.818 20.8174L19.8133 19.0187L18.4742 17.5331L16.4789 19.3318L17.818 20.8174ZM8.89863 14.0901L16.4847 20.8226L17.8121 19.3267L10.2261 12.5943L8.89863 14.0901ZM12.3702 9.34105L8.87865 12.6124L10.2461 14.072L13.7376 10.8006L12.3702 9.34105ZM2.26181 24.2708L13.6385 26.4299L14.0113 24.4649L2.6346 22.3058L2.26181 24.2708ZM2.97459 28.1435L3.44337 23.3864L1.45304 23.1902L0.984266 27.9473L2.97459 28.1435ZM13.5275 27.1188L1.98574 27.0454L1.97312 29.0454L13.5148 29.1188L13.5275 27.1188ZM12.8313 25.3344L12.5276 28.0057L14.5147 28.2318L14.8185 25.5604L12.8313 25.3344Z" fill="black" mask="url(#path-1-outside-1_1063_1763)"/>
</g>
</svg>
