<svg width="48" height="48" viewBox="0 0 48 48" fill="none" xmlns="http://www.w3.org/2000/svg">
<path d="M26.4733 8.93928C23.4614 8.66964 20.7968 10.882 20.508 13.8921L18.597 33.809C18.3056 36.8463 20.5423 39.5403 23.5814 39.8124L37.5255 41.0607C40.5373 41.3304 43.202 39.118 43.4908 36.108L45.4018 16.191C45.6932 13.1537 43.4565 10.4597 40.4174 10.1877L26.4733 8.93928Z" stroke="black" stroke-width="3"/>
<path d="M27.4452 8.93672C24.449 8.66849 21.7932 10.8571 21.4839 13.8493L19.6314 31.7715C19.3161 34.8223 21.557 37.5416 24.6118 37.815L38.5553 39.0634C41.5515 39.3316 44.2073 37.143 44.5166 34.1508L46.3691 16.2286C46.6844 13.1778 44.4435 10.4585 41.3887 10.185L27.4452 8.93672Z" stroke="black" stroke-width="3"/>
<rect x="0.764935" y="9.98639" width="27" height="33" rx="5.5" transform="rotate(-10.2453 0.764935 9.98639)" fill="white" stroke="black" stroke-width="3"/>
<path d="M19.4182 30.4564C19.5129 30.5716 19.5692 30.6682 19.587 30.7462C19.6345 30.9541 19.5286 31.1493 19.2693 31.3316L17.8325 32.3162C17.7504 32.376 17.6639 32.4162 17.5729 32.437C17.3519 32.4875 17.1553 32.3751 16.983 32.0999L15.6465 29.8407L15.5825 32.2556C15.5991 32.8673 15.4254 33.2146 15.0615 33.2978C14.9835 33.3156 14.9235 33.3224 14.8815 33.3183L13.4348 33.3615C12.9532 33.3484 12.6752 33.1794 12.601 32.8544C12.5891 32.8025 12.5814 32.7085 12.5777 32.5726L12.8425 28.1629L11.5389 28.5632L11.4219 28.5899C11.279 28.6226 11.1611 28.6153 11.0682 28.5681C10.9015 28.4968 10.7953 28.3911 10.7496 28.2511L10.2442 26.3971C10.2056 26.2281 10.2169 26.0682 10.2782 25.9175C10.3496 25.7507 10.4567 25.651 10.5997 25.6184L13.0431 24.9988L13.2253 22.0236L12.5969 22.1466L12.4701 23.8373C12.4574 24.141 12.3276 24.3211 12.0806 24.3775C12.0026 24.3953 11.8877 24.4011 11.7358 24.3947L10.2011 24.2323C9.8914 24.1937 9.71131 24.0638 9.66084 23.8429C9.64303 23.7649 9.64324 23.6759 9.66145 23.576L10.3414 18.5587C10.3842 18.207 10.5551 17.997 10.8541 17.9288C10.8931 17.9199 10.9805 17.9136 11.1164 17.9099L12.2361 17.9619C12.417 17.9753 12.5657 18.0576 12.6823 18.2087C12.764 18.3269 12.8152 18.4314 12.836 18.5224C12.8449 18.5614 12.8482 18.6359 12.846 18.7458L12.8136 19.143L16.0235 18.2868L16.082 18.2734C16.212 18.2438 16.3424 18.2755 16.4731 18.3688C16.5748 18.4549 16.6594 18.5861 16.727 18.7621L17.2369 20.6356L17.2458 20.6746C17.2785 20.8176 17.2402 20.9494 17.131 21.0701C16.9988 21.2097 16.8662 21.2878 16.7332 21.3045L15.8709 21.481L15.794 24.2885L17.0135 23.969C17.4164 23.877 17.6935 24.012 17.8445 24.3742L18.3044 25.8488L18.3222 25.9268C18.3489 26.0438 18.3367 26.1697 18.2854 26.3045C18.2211 26.4422 18.1074 26.5434 17.9444 26.608L15.7183 27.2805L15.6874 28.3133L16.5582 27.7246C16.5813 27.7057 16.6253 27.6888 16.6903 27.674C16.7682 27.6562 16.8297 27.6558 16.8746 27.6729C17.0325 27.7052 17.1522 27.7805 17.2339 27.8986L19.4182 30.4564ZM24.0265 17.2182C25.0254 17.4003 25.6574 18.1313 25.9223 19.4111L27.3293 26.2905C27.5181 27.1774 27.4655 27.9348 27.1712 28.5628C26.8469 29.2386 26.2363 29.6789 25.3393 29.8838L24.3255 30.1153C23.8055 30.2341 23.2863 30.2364 22.7679 30.1223C22.7014 30.37 22.5266 30.533 22.2436 30.6113L21.0765 30.9804L21.018 30.9938C20.849 31.0323 20.6637 30.9994 20.4621 30.895C20.2705 30.7747 20.148 30.5975 20.0945 30.3635L17.2578 19.3794C17.1913 19.1484 17.2153 18.9241 17.3298 18.7065C17.4572 18.4859 17.6199 18.3599 17.8178 18.3284L19.4796 17.9694C19.6905 17.9349 19.9033 17.9683 20.118 18.0697C20.3356 18.1842 20.4566 18.3548 20.4811 18.5818L22.409 27.7424L22.6909 27.7191L23.7048 27.4875C24.2898 27.354 24.5095 26.9687 24.364 26.3318L23.1367 20.8679C23.0506 20.4909 22.9077 20.2842 22.7079 20.2478C22.621 20.2266 22.4866 20.2368 22.3046 20.2783C22.1486 20.314 22.0266 20.3487 21.9386 20.3824C21.4896 20.5123 21.2205 20.3823 21.1315 19.9924L20.7674 18.5779C20.6754 18.1749 20.7794 17.9118 21.0795 17.7886C21.5657 17.5818 22.0492 17.4235 22.5302 17.3137C23.1021 17.1831 23.6009 17.1512 24.0265 17.2182Z" fill="black"/>
</svg>
