<svg width="66" height="74" viewBox="0 0 66 74" fill="none" xmlns="http://www.w3.org/2000/svg">
<g id="Group 89">
<path id="Vector" d="M32.9871 0C42.6725 0 50.5212 7.86146 50.5212 17.5637V30.73C50.5212 40.4322 42.6725 48.2937 32.9871 48.2937C23.3016 48.2937 15.453 40.4322 15.453 30.73V17.5637C15.453 7.86146 23.3016 0 32.9871 0ZM61.5939 24.6709C64.0217 24.6709 66 26.6522 66 29.1066C66 46.8364 53.9894 61.639 38.151 64.3234V69.6411C38.151 72.057 36.07 74 33.5138 74C30.9575 74 28.9922 72.1593 28.8766 69.8456V69.6283V64.464C12.5371 62.2654 0 47.2072 0 29.0938C0 26.6395 1.96527 24.6581 4.40591 24.6581C6.84654 24.6581 8.81197 26.6395 8.81197 29.0938C8.81197 43.9603 19.7306 55.8739 33.0128 55.8739C46.295 55.8739 56.9952 44.2032 57.2136 29.5412V29.0938C57.2136 26.6395 59.1919 24.6581 61.6197 24.6581L61.5939 24.6709Z" fill="#0D2938"/>
</g>
</svg>
